<svg xmlns="http://www.w3.org/2000/svg" width="1024" height="1024" viewBox="0 0 1024 1024" role="img" aria-label="janus princess">
    <defs>
      <filter id="shadow" x="-20%" y="-20%" width="140%" height="140%"><feDropShadow dx="0" dy="12" stdDeviation="18" flood-color="#0f172a" flood-opacity=".16"/></filter>
    </defs>
    <rect width="1024" height="1024" fill="hsl(7 36% 95%)"/>
    <rect x="64" y="64" width="896" height="896" rx="42" fill="#ffffff" opacity=".88" filter="url(#shadow)"/>
    <text x="512" y="115" text-anchor="middle" font-family="Inter, Arial, sans-serif" font-size="44" font-weight="900" fill="#111827">janus princess</text>
    <g><rect x="275" y="125" width="474" height="650" rx="250" fill="#f6e2cf"/>
      <path d="M300 450 C250 230 390 105 512 105 C650 105 795 240 725 475 C665 360 365 365 300 450Z" fill="#7a4b2a"/>
      <circle cx="430" cy="400" r="14" fill="#2b6cb0"/><circle cx="594" cy="400" r="14" fill="#2b6cb0"/>
      <path d="M430 555 C470 590 555 590 595 555" stroke="#a33a3a" stroke-width="8" fill="none"/>
      <path d="M320 720 C385 620 635 620 704 720 L704 775 H320Z" fill="hsl(7 58% 46%)"/>
      <path d="M410 185 L512 92 L612 185 Z" fill="#ffd43b" stroke="#b88700" stroke-width="6"/></g>
    
    <text x="512" y="940" text-anchor="middle" font-family="Inter, Arial, sans-serif" font-size="22" font-weight="700" fill="#667085">Codex generated visual reference</text>
  </svg>