<svg xmlns="http://www.w3.org/2000/svg" width="1024" height="1024" viewBox="0 0 1024 1024" role="img" aria-label="4x4 Sudoku Grid">
    <defs>
      <filter id="shadow" x="-20%" y="-20%" width="140%" height="140%"><feDropShadow dx="0" dy="12" stdDeviation="18" flood-color="#0f172a" flood-opacity=".16"/></filter>
    </defs>
    <rect width="1024" height="1024" fill="hsl(277 36% 95%)"/>
    <rect x="64" y="64" width="896" height="896" rx="42" fill="#ffffff" opacity=".88" filter="url(#shadow)"/>
    <text x="512" y="115" text-anchor="middle" font-family="Inter, Arial, sans-serif" font-size="44" font-weight="900" fill="#111827">4x4 Sudoku Grid</text>
    <g><rect x="210" y="170" width="604" height="604" fill="#fff" stroke="#202a36" stroke-width="8"/>
      <path d="M512 170 V774 M210 472 H814" stroke="#202a36" stroke-width="8"/>
      <g transform="translate(360 315) scale(1.15)"><circle cx="0" cy="6" r="18" fill="#e03131"/><circle cx="12" cy="6" r="16" fill="#e03131"/><path d="M4 -15 C6 -30 22 -31 28 -20 C18 -20 10 -16 4 -8" fill="#2f9e44"/><path d="M4 -12 L2 0" stroke="#57412d" stroke-width="4"/></g><g transform="translate(664 315) scale(1.15)"><rect x="-22" y="-16" width="42" height="40" rx="7" fill="#5dade2" stroke="#1c5f8a" stroke-width="4"/><path d="M20 -6 C42 -10 42 22 20 17" fill="none" stroke="#1c5f8a" stroke-width="5"/><path d="M-16 -8 H14" stroke="#dff4ff" stroke-width="4"/></g><g transform="translate(360 619) scale(1.15) rotate(-25)"><ellipse cx="0" cy="0" rx="17" ry="32" fill="#61b15a" stroke="#2b7a30" stroke-width="4"/><path d="M0 -24 L0 28 M-10 -8 L0 2 M9 -15 L0 -5" stroke="#2b7a30" stroke-width="3" fill="none"/></g><polygon transform="translate(664 619) scale(1.15)" points="0,-32 9,-10 32,-10 14,4 20,28 0,14 -20,28 -14,4 -32,-10 -9,-10" fill="#ffd43b" stroke="#e0a800" stroke-width="4"/>
      <text x="360" y="410" text-anchor="middle" font-family="Inter, Arial, sans-serif" font-size="42" font-weight="800" fill="#111827">A1</text><text x="664" y="410" text-anchor="middle" font-family="Inter, Arial, sans-serif" font-size="42" font-weight="800" fill="#111827">B2</text><text x="360" y="714" text-anchor="middle" font-family="Inter, Arial, sans-serif" font-size="42" font-weight="800" fill="#111827">C3</text><text x="664" y="714" text-anchor="middle" font-family="Inter, Arial, sans-serif" font-size="42" font-weight="800" fill="#111827">D4</text></g>
    
    <text x="512" y="940" text-anchor="middle" font-family="Inter, Arial, sans-serif" font-size="22" font-weight="700" fill="#667085">Codex generated visual reference</text>
  </svg>